<svg xmlns="http://www.w3.org/2000/svg" width="29.912" height="36.464" viewBox="0 0 29.912 36.464">
  <g id="Apple_download_button" data-name="Apple download button" transform="translate(-171.836 -6821.602)">
    <path id="Vector" d="M24.984,19.866a8.235,8.235,0,0,1,1.088-3.984,8.318,8.318,0,0,1,2.891-2.969A8.572,8.572,0,0,0,22.224,9.3c-2.835-.3-5.584,1.683-7.029,1.683-1.473,0-3.7-1.653-6.092-1.6a9.028,9.028,0,0,0-4.383,1.3,8.933,8.933,0,0,0-3.169,3.271c-3.265,5.607-.83,13.847,2.3,18.38,1.565,2.219,3.394,4.7,5.787,4.61,2.342-.1,3.216-1.481,6.043-1.481,2.8,0,3.621,1.481,6.063,1.425,2.513-.04,4.1-2.229,5.606-4.469a18.3,18.3,0,0,0,2.564-5.178,8.059,8.059,0,0,1-3.582-2.947A7.961,7.961,0,0,1,24.984,19.866ZM20.372,6.32A8.115,8.115,0,0,0,22.253.475a8.393,8.393,0,0,0-5.416,2.779,7.723,7.723,0,0,0-1.931,5.629,6.969,6.969,0,0,0,3.03-.658,6.912,6.912,0,0,0,2.435-1.9Z" transform="translate(171.836 6821.128)" fill="#fff"/>
  </g>
</svg>
