<svg xmlns="http://www.w3.org/2000/svg" width="301.579" height="294.509" viewBox="0 0 301.579 294.509">
  <g id="Layer_2" data-name="Layer 2" transform="translate(-21.554 202)">
    <g id="Layer_1" data-name="Layer 1">
      <path id="Path_16" data-name="Path 16" d="M145.647,112.314a55.694,55.694,0,0,1,18.8-3.571L46.494,0l96.472,106.037-62.633-57,53.931,62.449L58.472,44.091l64.8,74.185-54.634-47.1,40.552,44.569L0,16.386l83.563,91.849L45.379,73.484l63.183,71.759L26.921,72.957l82.528,90.7A56.051,56.051,0,0,1,145.647,112.314Z" transform="translate(21.554 -202)" fill="#01d681"/>
      <g id="Group_76557" data-name="Group 76557" transform="translate(37.415 -177.702)">
        <rect id="Rectangle_19" data-name="Rectangle 19" width="238.133" height="37.418" transform="translate(47.585 232.793)" fill="#01d681"/>
        <path id="Path_17" data-name="Path 17" d="M453.582,858.84v19.936a2.949,2.949,0,0,1-.1.769h1.667v2.28h-1.22l-.929-1.124h-.066a2.764,2.764,0,0,1-2.247,1.124H432.328a4.807,4.807,0,0,1-3.049-1.06,5.1,5.1,0,0,1-1.989-4.236v-6.044l1.374-1.124h1.349v7.159a2.854,2.854,0,0,0,.739,1.959,2.986,2.986,0,0,0,2.343,1.058h16.532a1.148,1.148,0,0,0,.929-.418,1.212,1.212,0,0,0,.291-.8V858.84ZM438.27,869.37a4.964,4.964,0,0,1-.9-2.857,3.811,3.811,0,0,1,1.156-2.953,4.544,4.544,0,0,1,3.209-1.058,7.7,7.7,0,0,1,1.574.159v1.475a4.4,4.4,0,0,0-1.374-.223q-2.695,0-2.695,2.6a3.242,3.242,0,0,0,.624,2.071,1.978,1.978,0,0,0,1.624.786h3.577v.706l-.673.824h-8.667v-1.541Z" transform="translate(-309.91 -622.91)" fill="#fff"/>
        <path id="Path_18" data-name="Path 18" d="M536.405,888.76v11.716a2.994,2.994,0,0,1-.769,2.055,2.747,2.747,0,0,1-2.151.994H527.9v-2.28h4.557a1.162,1.162,0,0,0,.9-.385,1.129,1.129,0,0,0,.321-.824V888.774Zm-5.769,18.1a1.59,1.59,0,0,1,1.571,1.574,1.552,1.552,0,0,1-.464,1.14,1.508,1.508,0,0,1-1.1.464,1.585,1.585,0,0,1-1.6-1.6,1.508,1.508,0,0,1,.464-1.1,1.549,1.549,0,0,1,1.124-.475Zm3.884,0a1.505,1.505,0,0,1,1.124.467,1.538,1.538,0,0,1,.448,1.1,1.566,1.566,0,0,1-2.678,1.14,1.555,1.555,0,0,1-.467-1.14,1.6,1.6,0,0,1,1.574-1.574Z" transform="translate(-382.882 -644.611)" fill="#fff"/>
        <path id="Path_19" data-name="Path 19" d="M590.6,888.76v12.485h1.648v2.28H590.6a7.139,7.139,0,0,1-2.857,6,9.386,9.386,0,0,1-5.747,1.648c-.363,0-.824,0-1.374-.033l-1.06-1.316V908.8a14.911,14.911,0,0,0,2.022.129q6.291,0,6.294-5.769v-14.4Z" transform="translate(-420.35 -644.611)" fill="#fff"/>
        <path id="Path_20" data-name="Path 20" d="M633.388,870.091v11.716a3,3,0,0,1-.772,2.055,2.747,2.747,0,0,1-2.151.994H624.88v-2.28h4.557a1.165,1.165,0,0,0,.9-.385,1.137,1.137,0,0,0,.319-.824V870.1Zm-5.2-7.063a1.5,1.5,0,0,1,1.124.467,1.538,1.538,0,0,1,.448,1.1,1.568,1.568,0,0,1-2.681,1.14,1.552,1.552,0,0,1-.464-1.14,1.591,1.591,0,0,1,1.574-1.574Zm3.915,0a1.6,1.6,0,0,1,1.574,1.574,1.555,1.555,0,0,1-.467,1.14,1.508,1.508,0,0,1-1.1.464,1.585,1.585,0,0,1-1.6-1.6,1.508,1.508,0,0,1,.464-1.1A1.555,1.555,0,0,1,632.1,863.028Z" transform="translate(-453.22 -625.942)" fill="#fff"/>
        <path id="Path_21" data-name="Path 21" d="M689.775,858.84v19.485a1.244,1.244,0,0,0,.321.868,1.206,1.206,0,0,0,.9.352h.418v2.28h-1.478a2.651,2.651,0,0,1-1.8-.673,2.989,2.989,0,0,1-1.1-2.376V858.84Z" transform="translate(-498.303 -622.91)" fill="#fff"/>
        <path id="Path_22" data-name="Path 22" d="M710.1,885.764a16.735,16.735,0,0,1,7.093-1.6,8.47,8.47,0,0,1,5.843,1.863q2.6,2.374,2.6,7.769v3.338a3.06,3.06,0,0,1-.706,1.989,2.681,2.681,0,0,1-2.151,1.06h-7.736a9.21,9.21,0,0,1-2.505-.225h-.129a9.11,9.11,0,0,1-2.536.225H702.18V897.9h6.228a5.6,5.6,0,0,1-1.14-1.97,7.733,7.733,0,0,1-.451-2.632,7.083,7.083,0,0,1,.964-3.821,4.867,4.867,0,0,1,2.31-1.893Zm5.618,7.48a4.771,4.771,0,0,0-.882-3.022,3.189,3.189,0,0,0-4.961.126,5.315,5.315,0,0,0-.739,2.986,5.4,5.4,0,0,0,.8,2.89,2.937,2.937,0,0,0,2.472,1.475,3.005,3.005,0,0,0,2.376-1.332,5.134,5.134,0,0,0,.923-3.112Zm7.189.995q0-4.14-1.412-5.873-1.448-1.777-4.851-1.777a13.832,13.832,0,0,0-4.121.577,5.372,5.372,0,0,1,3.948,1.508,6.251,6.251,0,0,1,1.648,4.623,7.507,7.507,0,0,1-.385,2.406,5.646,5.646,0,0,1-1.22,2.214h5.2a1.181,1.181,0,0,0,1.187-1.22Z" transform="translate(-509.286 -641.274)" fill="#fff"/>
      </g>
      <g id="Group_76511" data-name="Group 76511" transform="translate(53.944 53.153)">
        <path id="Path_23" data-name="Path 23" d="M413.645,485.325h7.631l2.4-8.741a9.291,9.291,0,0,1,5.695-6.233l7.909-2.981a9.285,9.285,0,0,1,8.381.931l8.961,5.9a9.277,9.277,0,0,1,4.181,7.692l.019,3.423h3.486l-.022-4.121a9.28,9.28,0,0,1,3.486-7.3l8.6-6.884a9.293,9.293,0,0,1,8.34-1.678l8.085,2.3a9.293,9.293,0,0,1,6.148,5.667l4.5,11.931-.074.1h4.148a53.973,53.973,0,1,0-91.873,0Zm72.751-58.84,12.843-.593a50.4,50.4,0,0,1,10.736,28.6l-10.068,8.054a9.3,9.3,0,0,1-8.34,1.681l-8.016-2.277a9.291,9.291,0,0,1-6.151-5.659l-3.865-10.249a9.3,9.3,0,0,1,.929-8.376l4.6-7.005A9.29,9.29,0,0,1,486.4,426.485Zm-47.8-4.046,3.47-12.637a50.159,50.159,0,0,1,30.289-1.483l4.615,12.241a9.282,9.282,0,0,1-.937,8.381l-4.448,6.774a9.285,9.285,0,0,1-7.329,4.165l-10.961.508a9.293,9.293,0,0,1-7.483-3.236l-5.321-6.214a9.291,9.291,0,0,1-1.9-8.5Zm-21.427,7.417,12.62-.585a9.285,9.285,0,0,1,7.464,3.242l5.445,6.357a9.3,9.3,0,0,1,1.9,8.5l-2.884,10.5a9.282,9.282,0,0,1-5.678,6.233l-7.912,2.983a9.28,9.28,0,0,1-8.379-.934l-10.541-6.931a50.656,50.656,0,0,1,7.945-29.355Z" transform="translate(-310.468 -525.609)" fill="#201943"/>
        <path id="Path_24" data-name="Path 24" d="M609.8,382.476A92.6,92.6,0,0,0,492.66,266.03l10.288,9.486a79.98,79.98,0,0,1,93.233,106.96Z" transform="translate(-370.369 -422.749)" fill="#201943"/>
        <path id="Path_25" data-name="Path 25" d="M481.461,205.9A98.844,98.844,0,0,1,576.1,333.25h12.016A110.546,110.546,0,0,0,437.2,202.756l10.041,9.255A98.345,98.345,0,0,1,481.461,205.9Z" transform="translate(-330.144 -373.523)" fill="#201943"/>
        <path id="Path_26" data-name="Path 26" d="M265.7,546.341h13.774a80.3,80.3,0,0,1-3.253-48.236l-9.84-10.815a92.577,92.577,0,0,0-.681,59.062Z" transform="translate(-200.421 -586.625)" fill="#201943"/>
        <path id="Path_27" data-name="Path 27" d="M212.158,506.965a98.8,98.8,0,0,1,2.486-64.246L205.8,433a110.889,110.889,0,0,0-5.494,73.965Z" transform="translate(-153.409 -547.249)" fill="#201943"/>
      </g>
      <g id="Group_76556" data-name="Group 76556" transform="translate(37.415 -177.702)">
        <path id="Path_31" data-name="Path 31" d="M519.263,783.65v4.417H508.67V783.65Z" transform="translate(-368.934 -568.375)" fill="#201943"/>
        <g id="Group_76556-2" data-name="Group 76556" transform="translate(53.944 53.153)">
          <path id="Path_28" data-name="Path 28" d="M214.869,734.538H202.688v13.939H196.37V717.77h6.318v11.494h12.137V717.77h6.348v30.707h-6.318Z" transform="translate(-196.37 -573.746)" fill="#201943"/>
          <path id="Path_29" data-name="Path 29" d="M321.974,742.3H310.48l-2.058,6.175H302l10.892-30.707h6.991l10.637,30.707h-6.53Zm-1.714-5.274-3.975-12.01-4.033,12.01Z" transform="translate(-272.983 -573.746)" fill="#201943"/>
          <path id="Path_30" data-name="Path 30" d="M426.888,723.074v25.432H420.57V723.074h-9.34V717.8h24.575v5.274Z" transform="translate(-352.206 -573.768)" fill="#201943"/>
          <path id="Path_32" data-name="Path 32" d="M571.345,723.074v25.432h-6.3V723.074H555.7V717.8h24.575v5.274Z" transform="translate(-456.989 -573.768)" fill="#201943"/>
          <path id="Path_33" data-name="Path 33" d="M665.318,736.3v12.181H659V717.77h16.482a7.982,7.982,0,0,1,5.964,2.1,8.488,8.488,0,0,1,2.316,6.217,7.506,7.506,0,0,1-5.233,7.593q2.959,1.156,3.6,2.873.475,1.244.687,8.277a2.7,2.7,0,0,0,1.33,2.489v1.156h-6.785a11.224,11.224,0,0,1-.942-5.189q0-.857.041-2.1v-1.244q0-3.643-3.9-3.645Zm0-5.274h7.634a5.418,5.418,0,0,0,3.346-.772,4.082,4.082,0,0,0,1.159-3.261,3.823,3.823,0,0,0-1.159-3.132,5.268,5.268,0,0,0-3.346-.824h-7.634Z" transform="translate(-531.912 -573.746)" fill="#201943"/>
          <path id="Path_34" data-name="Path 34" d="M775.518,717.77v30.707H769.2V717.77Z" transform="translate(-611.839 -573.746)" fill="#201943"/>
          <path id="Path_35" data-name="Path 35" d="M836.978,726.765h-6.013q-1.244-5.316-6.563-5.318a6.957,6.957,0,0,0-6.131,3.173,13.248,13.248,0,0,0-1.846,7.417q0,5.233,2.316,7.966a6.8,6.8,0,0,0,5.447,2.36,6.9,6.9,0,0,0,4.719-1.544,6.487,6.487,0,0,0,2.058-4.4H837.1a11.017,11.017,0,0,1-4.291,8.62,13.9,13.9,0,0,1-8.791,2.659q-6.868,0-10.637-4.8-3.261-4.156-3.261-10.988,0-7.8,4.288-12.087a13.093,13.093,0,0,1,9.738-3.775q7.115,0,10.763,4.761A10.877,10.877,0,0,1,836.978,726.765Z" transform="translate(-641.518 -572.491)" fill="#201943"/>
          <path id="Path_36" data-name="Path 36" d="M932.145,738.228v10.249h-6.3V717.77h6.3v13.524l12.01-13.51h7.464l-12.274,13.194,13.554,17.5h-7.543L935.32,734.926Z" transform="translate(-725.449 -573.746)" fill="#201943"/>
        </g>
      </g>
    </g>
  </g>
</svg>
